<?xml version="1.0" standalone="no"?><!-- Generator: Gravit.io --><svg xmlns="http://www.w3.org/2000/svg" xmlns:xlink="http://www.w3.org/1999/xlink" style="isolation:isolate" viewBox="0 0 238.8 212.9" width="238.8" height="212.9"><defs><clipPath id="_clipPath_p9Gxa6h3KknWGdczP5QSYwvZexO4kGPk"><rect width="238.8" height="212.9"/></clipPath></defs><g clip-path="url(#_clipPath_p9Gxa6h3KknWGdczP5QSYwvZexO4kGPk)"><clipPath id="_clipPath_24k45LgaYN5YyL0xBv2qoK1DEGyo9Bwe"><rect x="0" y="0" width="238.8" height="212.9" transform="matrix(1,0,0,1,0,0)" fill="rgb(255,255,255)"/></clipPath><g clip-path="url(#_clipPath_24k45LgaYN5YyL0xBv2qoK1DEGyo9Bwe)"><g id="Group"><g id="Group"><path d=" M 87.521 156.575 L 64.703 173.151 L 92.487 193.34 L 101.2 166.518 L 87.521 156.575 L 87.521 156.575 Z " fill="rgb(255,255,255)"/><path d=" M 96.592 196.326 L 119.409 212.9 L 142.213 196.326 L 119.409 179.743 L 96.592 196.326 L 96.592 196.326 Z " fill="rgb(255,255,255)"/><path d=" M 108.118 145.103 L 24.467 84.32 L 43.994 124.956 L 71.737 145.103 L 108.118 145.103 L 108.118 145.103 Z " fill="rgb(255,255,255)"/><path d=" M 116.873 118.304 L 0 33.385 L 19.525 74.029 L 109.914 139.702 L 116.873 118.304 L 116.873 118.304 Z " fill="rgb(255,255,255)"/><path d=" M 16.569 0.045 L 2.789 28.719 L 45.135 59.484 L 16.569 0.045 L 16.569 0.045 Z " fill="rgb(255,255,255)"/><path d=" M 137.609 166.518 L 146.329 193.34 L 174.103 173.151 L 151.283 156.575 L 137.609 166.518 L 137.609 166.518 Z " fill="rgb(255,255,255)"/><path d=" M 167.073 145.103 L 194.816 124.956 L 214.335 84.32 L 130.693 145.103 L 167.073 145.103 L 167.073 145.103 Z " fill="rgb(255,255,255)"/><path d=" M 121.942 118.304 L 128.891 139.702 L 219.281 74.029 L 238.811 33.385 L 121.942 118.304 L 121.942 118.304 Z " fill="rgb(255,255,255)"/><path d=" M 222.241 0.045 L 193.667 59.484 L 236.02 28.719 L 222.241 0.045 L 222.241 0.045 Z " fill="rgb(255,255,255)"/><path d=" M 106.733 160.574 C 106.733 153.577 112.409 147.897 119.415 147.897 C 126.405 147.897 132.092 153.577 132.092 160.574 C 132.092 167.579 126.405 173.254 119.415 173.254 C 112.409 173.253 106.733 167.579 106.733 160.574 Z " fill="rgb(255,255,255)"/></g></g></g></g></svg>