<?xml version="1.0" standalone="no"?><!-- Generator: Gravit.io --><svg xmlns="http://www.w3.org/2000/svg" xmlns:xlink="http://www.w3.org/1999/xlink" style="isolation:isolate" viewBox="0 0 200.37 182.87" width="200.37" height="182.87"><defs><clipPath id="_clipPath_3aF7y8LUW6zmLGfsQx1MbVxaVLFR25FZ"><rect width="200.37" height="182.87"/></clipPath></defs><g clip-path="url(#_clipPath_3aF7y8LUW6zmLGfsQx1MbVxaVLFR25FZ)"><g id="Group" style="opacity:0.5;"><path d=" M 185.938 151.776 L 3.018 151.776 L 3.018 180.227 L 185.938 180.227 L 185.938 151.776 Z " fill="none" vector-effect="non-scaling-stroke" stroke-width="3.96" stroke="rgb(150,13,50)" stroke-linejoin="miter" stroke-linecap="butt" stroke-miterlimit="4"/><path d=" M 2.971 3.333 L 2.971 26.316 L 13.491 26.316 L 13.491 120.994 L 2.971 120.994 L 2.971 143.975 L 73.86 143.975 L 88.262 129.409 L 88.262 75.839 L 78.067 65.319 L 88.262 55.124 L 88.262 17.254 L 74.018 3.333 L 2.971 3.333 L 2.971 3.333 Z  M 98.148 3.333 L 98.148 26.316 L 108.668 26.316 L 108.668 129.893 L 123.07 143.975 L 172.756 143.975 L 186.838 129.893 L 186.838 26.316 L 197.356 26.316 L 197.356 3.333 L 153.336 3.333 L 153.336 26.316 L 163.857 26.316 L 163.857 120.994 L 131.65 120.994 L 131.65 26.316 L 142.168 26.316 L 142.168 3.333 L 98.149 3.333 L 98.148 3.333 Z  M 36.472 26.316 L 65.28 26.316 L 65.28 55.606 L 36.472 55.606 L 36.472 26.316 Z  M 36.472 78.753 L 65.28 78.753 L 65.28 120.994 L 36.472 120.994 L 36.472 78.753 Z  M 4.883 153.719 L 4.883 178.296 L 184.958 178.296 L 184.958 153.719 L 4.883 153.719 L 4.883 153.719 Z " fill="rgb(204,0,0)"/><path d=" M 2.971 3.333 L 2.971 26.316 L 13.491 26.316 L 13.491 120.994 L 2.971 120.994 L 2.971 143.975 L 73.86 143.975 L 88.262 129.409 L 88.262 75.839 L 78.067 65.319 L 88.262 55.124 L 88.262 17.254 L 74.018 3.333 L 2.971 3.333 L 2.971 3.333 Z  M 98.148 3.333 L 98.148 26.316 L 108.668 26.316 L 108.668 129.893 L 123.07 143.975 L 172.756 143.975 L 186.838 129.893 L 186.838 26.316 L 197.356 26.316 L 197.356 3.333 L 153.336 3.333 L 153.336 26.316 L 163.857 26.316 L 163.857 120.994 L 131.65 120.994 L 131.65 26.316 L 142.168 26.316 L 142.168 3.333 L 98.149 3.333 L 98.148 3.333 Z  M 36.472 26.316 L 65.282 26.316 L 65.282 55.606 L 36.472 55.606 L 36.472 26.316 Z  M 36.472 78.753 L 65.282 78.753 L 65.282 120.994 L 36.472 120.994 L 36.472 78.753 Z " fill="none" vector-effect="non-scaling-stroke" stroke-width="3.98" stroke="rgb(150,13,50)" stroke-linejoin="miter" stroke-linecap="butt" stroke-miterlimit="4"/><g id="Group"><path d=" M 9.461 160.198 L 9.461 162.388 L 10.461 162.388 L 10.461 171.395 L 9.461 171.395 L 9.461 173.583 L 16.205 173.583 L 17.576 172.196 L 17.576 167.097 L 16.607 166.099 L 17.576 165.13 L 17.576 161.523 L 16.223 160.198 L 9.461 160.198 L 9.461 160.198 Z  M 21.455 160.198 L 20.039 161.646 L 20.039 172.133 L 21.38 173.583 L 25.722 173.583 L 27.154 172.133 L 27.154 161.646 L 25.753 160.198 L 21.455 160.198 Z  M 30.804 160.198 L 29.619 161.368 L 29.619 166.499 L 30.865 167.745 L 34.732 167.745 L 34.732 171.395 L 31.804 171.395 L 31.804 169.78 L 29.619 169.78 L 29.619 172.149 L 31.066 173.583 L 35.316 173.583 L 36.919 171.934 L 36.919 166.837 L 35.669 165.573 L 31.804 165.573 L 31.804 162.388 L 34.732 162.388 L 34.732 163.956 L 36.919 163.956 L 36.919 161.402 L 35.687 160.198 L 30.804 160.198 L 30.804 160.198 Z  M 39.38 160.198 L 39.38 164.974 L 41.491 164.974 L 41.491 162.388 L 42.847 162.388 L 42.847 171.395 L 41.847 171.395 L 41.847 173.583 L 46.034 173.583 L 46.034 171.395 L 45.034 171.395 L 45.034 162.388 L 46.388 162.388 L 46.388 164.974 L 48.499 164.974 L 48.499 160.198 L 39.38 160.198 Z  M 52.38 160.198 L 50.962 161.646 L 50.962 172.133 L 52.303 173.583 L 56.645 173.583 L 58.079 172.133 L 58.079 161.646 L 56.674 160.198 L 52.38 160.198 Z  M 60.54 160.198 L 60.54 162.388 L 61.542 162.388 L 61.542 171.395 L 60.54 171.395 L 60.54 173.583 L 64.729 173.583 L 64.729 171.395 L 63.727 171.395 L 63.727 166.099 L 66.916 173.583 L 68.918 173.583 L 68.918 162.388 L 69.918 162.388 L 69.918 160.199 L 65.731 160.199 L 65.731 162.388 L 66.733 162.388 L 66.733 167.933 L 63.514 160.199 L 60.54 160.199 L 60.54 160.198 Z  M 77.957 160.198 L 77.957 162.388 L 78.959 162.388 L 78.959 172.239 L 80.33 173.583 L 85.057 173.583 L 86.396 172.239 L 86.396 162.388 L 87.398 162.388 L 87.398 160.198 L 83.209 160.198 L 83.209 162.388 L 84.209 162.388 L 84.209 171.395 L 81.145 171.395 L 81.145 162.388 L 82.147 162.388 L 82.147 160.198 L 77.957 160.198 Z  M 89.861 160.198 L 89.861 162.388 L 90.861 162.388 L 90.861 171.395 L 89.861 171.395 L 89.861 173.583 L 94.05 173.583 L 94.05 171.395 L 93.048 171.395 L 93.048 166.099 L 96.238 173.583 L 98.24 173.583 L 98.24 162.388 L 99.24 162.388 L 99.24 160.199 L 95.05 160.199 L 95.05 162.388 L 96.052 162.388 L 96.052 167.933 L 92.834 160.199 L 89.861 160.199 L 89.861 160.198 Z  M 101.705 160.198 L 101.705 162.388 L 102.703 162.388 L 102.703 171.395 L 101.705 171.395 L 101.705 173.583 L 105.892 173.583 L 105.892 171.395 L 104.89 171.395 L 104.89 162.388 L 105.892 162.388 L 105.892 160.198 L 101.705 160.198 Z  M 108.359 160.198 L 108.359 162.388 L 109.265 162.388 L 112.083 173.583 L 114.454 173.583 L 117.194 162.388 L 118.198 162.388 L 118.198 160.198 L 113.917 160.198 L 113.917 162.388 L 115.007 162.388 L 113.267 169.702 L 111.542 162.388 L 112.546 162.388 L 112.546 160.198 L 108.359 160.198 L 108.359 160.198 Z  M 120.661 160.198 L 120.661 162.388 L 121.663 162.388 L 121.663 171.395 L 120.661 171.395 L 120.661 173.583 L 128.778 173.583 L 128.778 168.624 L 126.589 168.624 L 126.589 171.395 L 123.849 171.395 L 123.849 167.329 L 126.589 167.329 L 126.589 165.13 L 123.849 165.13 L 123.849 162.388 L 126.589 162.388 L 126.589 164.222 L 128.778 164.222 L 128.778 160.198 L 120.661 160.198 L 120.661 160.198 Z  M 131.239 160.198 L 131.239 162.388 L 132.241 162.388 L 132.241 171.395 L 131.239 171.395 L 131.239 173.583 L 135.43 173.583 L 135.43 171.395 L 134.427 171.395 L 134.427 168.239 L 135.182 168.239 L 137.799 173.583 L 140.02 173.583 L 140.02 171.395 L 139.096 171.395 L 137.493 168.239 L 138.216 168.239 L 139.356 167.054 L 139.356 161.292 L 138.216 160.198 L 131.239 160.198 L 131.239 160.198 Z  M 143.671 160.198 L 142.481 161.368 L 142.481 166.499 L 143.731 167.745 L 147.596 167.745 L 147.596 171.395 L 144.671 171.395 L 144.671 169.78 L 142.481 169.78 L 142.481 172.149 L 143.931 173.583 L 148.18 173.583 L 149.782 171.934 L 149.782 166.837 L 148.534 165.573 L 144.671 165.573 L 144.671 162.388 L 147.597 162.388 L 147.597 163.956 L 149.782 163.956 L 149.782 161.402 L 148.552 160.198 L 143.671 160.198 L 143.671 160.198 Z  M 152.247 160.198 L 152.247 162.388 L 153.247 162.388 L 153.247 171.395 L 152.247 171.395 L 152.247 173.583 L 156.438 173.583 L 156.438 171.395 L 155.434 171.395 L 155.434 162.388 L 156.438 162.388 L 156.438 160.198 L 152.247 160.198 Z  M 158.897 160.198 L 158.897 164.974 L 161.01 164.974 L 161.01 162.388 L 162.364 162.388 L 162.364 171.395 L 161.364 171.395 L 161.364 173.583 L 165.551 173.583 L 165.551 171.395 L 164.551 171.395 L 164.551 162.388 L 165.907 162.388 L 165.907 164.974 L 168.016 164.974 L 168.016 160.198 L 158.897 160.198 L 158.897 160.198 Z  M 170.479 160.198 L 170.479 162.388 L 171.449 162.388 L 174.299 167.808 L 174.299 171.395 L 173.299 171.395 L 173.299 173.583 L 177.488 173.583 L 177.488 171.395 L 176.484 171.395 L 176.484 167.776 L 179.193 162.388 L 180.01 162.388 L 180.01 160.198 L 175.932 160.198 L 175.932 162.388 L 176.871 162.388 L 175.346 165.497 L 173.775 162.388 L 174.854 162.388 L 174.854 160.198 L 170.479 160.198 L 170.479 160.198 Z  M 12.653 162.388 L 15.393 162.388 L 15.393 165.177 L 12.653 165.177 L 12.653 162.388 Z  M 22.231 162.388 L 24.973 162.388 L 24.973 171.395 L 22.231 171.395 L 22.231 162.388 Z  M 53.154 162.388 L 55.896 162.388 L 55.896 171.395 L 53.154 171.395 L 53.154 162.388 Z  M 134.431 162.388 L 137.175 162.388 L 137.175 166.052 L 134.431 166.052 L 134.431 162.388 Z  M 12.654 167.376 L 15.394 167.376 L 15.394 171.395 L 12.654 171.395 L 12.654 167.376 Z " fill="rgb(255,255,255)"/><path d=" M 111.728 155.013 L 108.169 153.38 C 108.169 153.38 104.97 157.871 103.012 159.827 C 101.056 161.788 97.494 160.953 96.297 160.161 C 95.099 159.366 90.85 155.673 85.81 153.185 C 80.765 150.695 75.1 146.057 75.1 146.057 C 74.191 145.217 68.738 139.92 68.576 133.828 C 68.405 127.178 68.995 121.772 75.4 120.774 L 75.92 119.604 L 71.266 114.315 L 77.96 115.295 L 79.131 113.085 C 79.131 113.085 79.81 112.563 80.691 113.026 C 80.691 113.026 82.324 113.895 82.324 113.895 L 85.65 107.895 C 85.65 107.895 84.536 105.525 82.44 102.895 C 80.345 100.262 79.534 97.805 79.997 94.785 C 80.459 91.763 81.764 86.739 83.301 84.879 C 83.712 85.225 75.469 78.977 79.354 73.501 C 84.279 66.557 87.89 64.643 94.112 60.117 C 100.363 55.57 100.232 56.777 100.027 58.702 C 99.819 60.623 97.366 62.711 95.247 64.147 C 95.438 63.478 92.961 69.886 91.381 71.151 C 91.415 71.659 90.221 74.604 89.932 74.776 C 89.932 74.776 96.139 69.461 100.706 70.596 C 105.274 71.729 110.319 75.369 110.319 75.369 C 110.319 75.369 112.243 75.511 112.758 75.679 C 112.758 75.679 110.363 73.083 113.28 69.923 C 115.288 67.747 118.019 65.728 123.6 63.636 C 124.429 63.326 125.114 63.738 123.702 65.658 C 122.299 67.583 121.791 67.201 121.791 67.201 C 121.791 67.201 120.848 69.942 119.874 71.487 C 119.629 71.876 119.083 74.536 117.951 77.431 C 117.951 77.431 127.721 83.269 130.164 89.513 C 131.159 92.051 130.537 94.285 127.311 98.026 C 127.311 98.026 127.495 100.961 126.349 103.069 C 126.349 103.069 128.754 104.365 130.121 105.77 C 130.121 105.77 134.628 106.805 135.26 107.99 C 135.888 109.171 137.2 115.605 135.337 120.469 C 133.476 125.338 130.83 128.1 128.85 128.159 C 128.85 128.159 127.646 129.542 126.806 129.72 C 125.965 129.902 125.459 129.589 125.05 130.018 C 124.64 130.445 123.84 131.738 122.404 131.684 C 120.966 131.625 120.536 131.484 120.536 131.484 C 120.536 131.484 116.481 133.493 115.113 133.719 C 115.113 133.719 122.421 139.034 123.021 152.009 C 123.288 157.783 119.538 157.418 117.375 156.817 C 115.518 156.301 112.492 155.273 111.728 155.013" fill="rgb(0,0,0)"/><path d=" M 102.853 72.353 C 102.853 72.353 113.96 83.215 114.8 87.834 C 115.003 88.961 114.993 90.433 113.748 89.526 C 112.502 88.62 107.607 85.553 106.702 85.147 C 105.794 84.74 105.45 84.733 106.022 85.783 C 106.599 86.832 108.425 90.236 113.077 94.285 C 117.726 98.332 118.706 99.207 118.946 100.017 C 119.183 100.83 118.47 103.692 118.135 104.202 C 117.796 104.709 116.25 104.805 115.034 105.007 C 113.814 105.21 110.748 106.531 108.147 109.428 C 107.575 110.066 106.978 110.201 105.457 110.776 C 103.932 111.35 100.634 113.442 99.856 116.812 C 99.856 116.812 96.878 112.196 94.42 111.383 C 91.963 110.571 91.532 110.005 90.21 111.587 C 88.888 113.172 87.337 115.662 87.203 118.801 C 87.07 121.944 87.643 125.282 89.363 127.134 C 91.083 128.993 92.09 129.999 92.768 129.898 C 93.446 129.795 96.579 126.483 97.359 126.189 C 97.359 126.189 96.343 127.312 96.308 127.744 C 96.308 127.744 99.112 126.39 101.474 126.832 C 101.474 126.832 101.271 125.112 101.304 124.741 C 101.304 124.741 98.943 124.267 97.392 124.908 C 95.842 125.551 93.371 126.627 92.396 126.663 C 91.422 126.695 90.178 125.883 89.566 124.468 C 88.958 123.054 88.923 122.411 88.923 122.411 C 88.923 122.411 89.728 124.606 90.611 125.147 C 90.611 125.147 88.855 120.726 91.185 114.857 C 91.185 114.857 89.831 116.11 89.023 117.964 C 89.023 117.964 89.862 114.342 92.2 113.001 C 93.31 112.366 94.122 112.763 93.886 112.967 C 93.65 113.172 93.241 113.373 93.241 113.373 C 93.241 113.373 94.487 114.18 94.927 114.787 C 95.369 115.398 95.543 115.296 96.146 115.467 C 96.748 115.633 97.656 117.618 98.264 118.499 C 98.874 119.379 99.884 120.149 100.493 120.421 C 101.102 120.692 101.644 121.469 101.644 121.469 C 101.644 121.469 101.671 119.546 102.449 118.971 C 102.449 118.971 101.603 122.443 102.076 125.046 C 102.551 127.643 104.173 132.362 107.749 132.97 C 111.323 133.58 116.175 133.242 119.715 130.81 C 123.258 128.384 125.992 125.313 128.219 120.352 C 128.219 120.352 127.984 122.884 126.129 125.046 C 125.936 125.266 125.959 125.816 126.467 126.053 C 126.975 126.289 128.829 126.967 128.829 126.967 C 128.829 126.967 129.572 127.06 130.616 126.153 C 131.659 125.248 134.758 122.106 135.335 116.608 C 135.912 111.113 134.898 108.486 133.955 108.08 C 133.006 107.675 129.972 106.192 126.06 106.259 C 122.146 106.329 117.796 106.761 117.796 106.761 C 117.796 106.761 121.54 105.449 128.119 105.65 C 128.119 105.65 125.551 104.236 120.464 103.49 C 120.464 103.49 120.57 100.485 121.074 99.375 C 121.573 98.266 123.358 96.241 124.105 94.455 C 124.849 92.666 125.755 89.159 125.787 88.45 C 125.821 87.738 125.545 87.097 125.212 87.974 C 124.882 88.856 123.932 91.245 123.63 91.55 C 123.325 91.854 122.891 91.726 122.758 91.15 C 122.623 90.575 121.604 86.333 119.751 83.224 C 117.896 80.118 115.24 76.879 111.527 76.508 C 111.527 76.508 115.533 79.684 116.075 81.199 C 116.075 81.199 112.265 77.523 108.215 75.129 C 104.167 72.731 102.853 72.353 102.853 72.353" fill="rgb(255,255,255)"/><path d=" M 100.353 96.053 L 103.684 98.384 C 103.684 98.384 104.604 99.626 104.425 101.139 C 104.211 102.927 103.881 105.105 102.231 105.936 L 99.156 107.133 C 99.156 107.133 97.098 104.877 97.188 102.455 C 97.278 100.034 98.384 96.976 100.353 96.053" fill="rgb(147,149,152)"/><path d=" M 118.09 70.616 C 118.09 70.616 118.365 73.402 117.474 75.824 C 117.474 75.824 118.226 74.271 118.479 72.534 C 118.479 72.534 118.663 73.128 118.594 73.518 C 118.594 73.518 119.005 71.346 119.118 70.321 C 119.118 70.321 120.214 69.632 120.629 66.938 C 120.629 66.938 122.706 65.661 123.188 64.793 C 123.188 64.793 119.951 66.198 116.811 68.673 C 113.795 71.049 112.972 73.218 112.972 73.218 C 112.972 73.218 112.79 74.452 114.115 76.098 C 114.115 76.098 114.849 74.408 115.966 72.923 C 117.086 71.437 118.615 69.678 119.073 69.314 C 119.073 69.314 118.163 70.478 118.09 70.616" fill="rgb(0,0,0)"/><path d=" M 115.39 70.378 C 115.39 70.378 118.504 67.047 121.771 65.706 C 121.771 65.706 121.466 66.163 121.25 66.291 C 121.034 66.421 117.4 68.583 115.39 70.378" fill="rgb(230,231,232)"/><path d=" M 104.965 99.527 C 104.965 99.527 110.202 103.326 111.745 103.551 C 111.745 103.551 106.342 104.657 104.467 105.204 C 104.467 105.204 105.555 102.416 104.965 99.527 Z " fill="rgb(255,255,255)"/><path d=" M 99.741 95.415 C 99.741 95.415 96.729 98.245 96.637 101.772 C 96.547 105.3 98.089 107.496 98.089 107.496 L 97.456 107.677 C 97.456 107.677 94.762 104.937 95.079 101.502 C 95.396 98.064 96.997 95.694 98.197 94.856 C 98.649 94.536 98.971 94.629 99.241 94.856 C 99.514 95.083 99.741 95.415 99.741 95.415" fill="rgb(255,255,255)"/><path d=" M 101.078 100.715 C 101.262 101.231 101.731 103.744 100.851 105.44 C 99.974 107.135 98.886 106.075 98.656 105.62 C 98.428 105.165 98.068 103.291 98.656 101.821 C 99.247 100.352 100.546 99.199 101.078 100.715 Z " fill="rgb(0,0,0)"/></g><g id="Group"><path d=" M 102.041 103.377 C 102.041 103.377 102.494 102.546 102.494 100.399 C 102.494 100.399 103.359 101.624 102.723 104.242 C 102.723 104.242 103.964 101.486 103.086 98.61 C 103.086 98.61 101.211 97.325 100.844 97.005 C 100.483 96.688 99.878 96.84 99.561 97.158 C 99.241 97.474 98.002 98.747 97.728 100.261 L 98.089 99.897 C 98.089 99.897 97.456 101.504 97.728 103.334 C 97.728 103.334 98.644 99.045 99.968 98.656 C 101.211 98.292 101.694 99.217 101.937 100.079 C 102.177 100.942 102.041 103.377 102.041 103.377 Z " fill="rgb(230,231,232)"/><path d=" M 105.153 101.665 C 105.153 101.665 106.32 102.146 107.175 102.747 C 108.033 103.345 108.995 104.135 108.995 104.135 L 111.748 103.552 C 111.748 103.552 110.248 103.38 104.968 99.529 C 104.968 99.529 105.238 101.2 105.153 101.665" fill="rgb(230,231,232)"/><path d=" M 98.278 97.178 C 98.278 97.178 97.899 96.325 96.924 96.188 C 96.924 96.188 97.792 94.998 98.373 94.766 C 98.957 94.536 99.172 94.721 99.741 95.421 C 99.741 95.421 98.686 96.486 98.278 97.178" fill="rgb(230,231,232)"/></g><g id="Group"><path d=" M 93.078 97.278 C 93.078 97.278 92.376 98.459 92.485 100.819 C 92.485 100.819 92.78 98.339 93.428 97.602 L 93.078 97.278 L 93.078 97.278 Z " fill="rgb(0,0,0)"/><path d=" M 94.403 96.065 C 94.403 96.065 92.777 98.392 92.59 101.726 L 93.05 101.726 C 93.05 101.726 93.183 98.879 94.403 96.065 Z " fill="rgb(230,231,232)"/><path d=" M 95.153 97.502 C 95.153 97.502 94.283 100.369 94.093 103.215 C 94.093 103.215 93.797 103.019 93.797 102.669 C 93.797 102.317 94.342 98.689 95.153 97.502" fill="rgb(230,231,232)"/><path d=" M 105.89 97.877 C 105.89 97.877 108.033 100.019 116.053 102.295 L 116.408 101.504 L 116.765 101.446 C 116.765 101.446 116.684 102.575 116.461 102.931 C 116.243 103.287 115.915 103.124 115.915 103.124 C 115.915 103.124 108.692 100.955 105.89 97.877" fill="rgb(0,0,0)"/><path d=" M 124.777 100.865 C 124.777 100.865 125.269 101.734 124.702 103.004 L 125.142 103.029 C 125.142 103.029 126.097 101.381 125.342 100.287 L 124.777 100.865 Z " fill="rgb(255,255,255)"/><path d=" M 124.577 101.177 L 124.251 101.556 C 124.251 101.556 124.226 102.495 123.977 102.709 C 123.724 102.925 123.448 102.636 123.423 102.206 L 123.031 102.459 C 123.031 102.459 123.046 102.9 123.299 102.925 C 123.55 102.951 124.302 102.951 124.302 102.951 C 124.302 102.951 124.981 102.285 124.577 101.177" fill="rgb(147,149,152)"/><path d=" M 123.278 103.302 L 123.378 103.604 C 123.378 103.604 125.726 104.032 127.874 104.951 C 127.874 104.951 127.399 103.782 124.432 103.329 C 124.004 103.261 123.278 103.302 123.278 103.302" fill="rgb(0,0,0)"/><path d=" M 126.277 99.565 C 126.277 99.565 126.277 101.939 125.525 103.159 L 125.954 103.259 C 125.954 103.259 126.956 102.292 126.781 99.239 L 126.277 99.565 Z " fill="rgb(0,0,0)"/></g><g id="Group"><path d=" M 87.266 81.128 C 87.266 81.128 92.522 74.473 96.053 72.759 C 99.586 71.047 102.498 73.639 103.637 74.631 C 104.78 75.623 109.404 80.293 112.939 86.844 C 112.939 86.844 105.554 75.676 102.333 75.153 C 99.116 74.631 97.924 75.361 97.924 75.361 C 97.924 75.361 98.644 74.266 100.879 74.419 C 100.879 74.419 98.383 72.917 93.451 76.449 C 88.521 79.982 87.683 81.233 87.683 81.233 L 87.266 81.128 Z " fill="rgb(230,231,232)"/><path d=" M 91.878 88.303 C 91.878 88.303 94.931 87.88 96.316 89.323 C 96.316 89.323 99.653 93.083 99.653 93.083 C 99.653 93.083 96.144 89.181 93.828 89.065 C 91.51 88.955 89.247 89.039 87.721 92.544 C 87.721 92.544 91.058 88.814 93.942 89.889 C 96.826 90.963 98.748 93.478 99.907 94.469 C 101.067 95.458 105.42 99.162 108.135 100.659 C 108.599 100.917 110.31 101.564 111.187 101.734 C 111.187 101.734 104.939 98.652 101.659 94.354 C 101.114 93.638 97.221 87.908 94.648 87.795 C 92.076 87.683 91.878 88.303 91.878 88.303 Z " fill="rgb(230,231,232)"/><path d=" M 116.053 102.29 C 116.053 102.29 106.153 99.825 103.689 95.529 C 103.689 95.529 107.694 98.77 112.854 100.05 C 113.982 100.33 115.54 100.725 116.345 100.757 C 116.345 100.757 116.595 101.331 116.053 102.29 Z " fill="rgb(230,231,232)"/><path d=" M 116.728 103.215 L 117.048 103.215 C 117.048 103.215 117.945 101.3 117.848 100.721 C 117.685 99.757 116.306 98.636 110.895 94.246 C 110.895 94.246 115.636 99.1 116.471 100.046 C 117.209 100.882 117.366 101.647 116.728 103.215 Z " fill="rgb(230,231,232)"/></g><g id="Group"><path d=" M 98.678 102.59 C 98.788 101.891 99.008 101.347 99.168 101.371 C 99.329 101.397 99.371 101.984 99.261 102.684 C 99.149 103.377 98.932 103.924 98.769 103.899 C 98.606 103.874 98.568 103.287 98.678 102.59" fill="rgb(255,255,255)"/><path d=" M 117.253 78.003 C 117.253 78.003 122.156 84.752 122.826 88.328 C 123.15 90.056 123.01 91.694 123.569 90.625 C 124.127 89.553 124.98 86.657 125.465 86.682 C 125.952 86.705 126.512 87.242 126.461 88.338 C 126.415 89.431 125.304 95.846 121.819 99.572 C 121.819 99.572 121.88 101.855 121.4 102.819 C 121.4 102.819 126.746 98.971 128.909 94.886 C 131.179 90.596 128.427 87.258 125.969 84.674 C 121.558 80.05 117.253 78.003 117.253 78.003 Z " fill="rgb(0,0,0)"/><path d=" M 118.053 78.64 C 118.053 78.64 120.546 82.129 121.503 84.369 C 121.503 84.369 120.809 82.008 120.175 81.039 C 120.175 81.039 124.455 83.599 127.386 87.245 C 127.386 87.245 124.776 82.684 118.053 78.64 Z " fill="rgb(230,231,232)"/><path d=" M 122.603 100.29 L 122.609 99.741 C 122.609 99.741 126.582 96.645 127.541 95.37 C 128.504 94.098 129.062 92.669 128.94 90.346 C 128.94 90.346 130.015 92.51 128.655 94.841 C 127.294 97.17 126.145 98.407 123.513 100.762 L 122.7 100.885 L 122.603 100.29 L 122.603 100.29 Z " fill="rgb(230,231,232)"/><path d=" M 122.728 100.79 C 122.728 100.79 124.676 99.211 126.774 96.848 C 126.774 96.848 124.7 99.862 122.601 101.659 C 122.601 101.659 122.15 101.885 122.124 101.709 C 122.099 101.534 122.201 100.919 122.374 100.541 L 122.601 100.289 L 122.728 100.79 L 122.728 100.79 Z " fill="rgb(0,0,0)"/><path d=" M 89.403 108.89 C 89.403 108.89 90.755 106.921 94.313 107.681 C 94.313 107.681 95.739 109.292 97.472 108.7 C 99.204 108.11 104.117 106.281 105.993 106.374 C 105.993 106.374 100.936 108.11 99.204 109.985 C 99.204 109.985 104.258 107.537 106.134 107.537 L 106.894 107.871 L 106.134 108.583 C 106.134 108.583 101.698 109.605 99.919 112.877 C 99.919 112.877 99.417 111.03 96.853 109.985 C 96.853 109.985 99.489 112.287 99.728 113.971 L 99.633 115.561 C 99.633 115.561 96.977 110.61 92.277 109.937 C 90.611 109.7 88.383 110.956 85.89 116.674 C 85.89 116.674 86.651 111.692 90.115 109.365 C 91.563 108.395 93.723 109.318 93.913 109.365 C 94.103 109.411 92.04 108.035 89.403 108.89" fill="rgb(0,0,0)"/></g><g id="Group"><path d=" M 103.853 106.952 C 103.853 106.952 101.078 107.918 97.707 109.74 C 97.707 109.74 98.724 108.505 100.139 107.99 C 101.553 107.468 103.853 106.952 103.853 106.952" fill="rgb(230,231,232)"/><path d=" M 99.391 111.002 C 99.391 111.002 103.304 108.02 105.64 107.777 L 106.428 107.882 L 105.432 108.397 C 105.432 108.397 102.581 109.115 99.391 111.002 Z " fill="rgb(230,231,232)"/><path d=" M 89.803 108.665 C 89.803 108.665 91.026 107.776 92.616 108.121 C 94.201 108.467 95.908 109.57 96.768 110.285 C 97.631 111.001 99.452 113.103 99.452 114.2 C 99.452 114.2 97.736 111.112 95.399 110.457 C 93.063 109.802 92.13 109.287 90.933 109.802 C 89.735 110.32 88.632 111.242 87.366 113.301 C 87.366 113.301 88.193 111.106 90.081 109.7 C 91.97 108.292 95.399 110.045 95.399 110.045 C 95.399 110.045 94.16 108.846 92.752 108.605 C 91.348 108.361 90.631 108.423 89.803 108.665 Z " fill="rgb(230,231,232)"/><path d=" M 117.865 110.977 C 117.865 110.977 117.651 111.463 119.109 112.222 C 120.566 112.978 122.176 113.892 122.334 114.668 C 122.488 115.443 124.86 117.211 125.557 117.599 C 126.254 117.987 125.635 118.901 126.254 118.978 C 126.877 119.056 127.945 118.531 128.101 117.756 C 128.256 116.978 124.877 112.512 124.877 112.512 L 117.865 110.977 Z " fill="rgb(230,231,232)"/></g><g id="Group"><path d=" M 123.69 114.565 C 123.69 114.565 124.985 115.565 125.576 116.235 C 126.169 116.903 127.292 117.913 127.812 117.913 C 128.336 117.913 128.761 117.434 129.667 116.381 C 130.57 115.33 130.789 114.87 131.101 114.066 C 131.414 113.267 132.207 111.658 132.634 111.208 C 133.06 110.753 133.466 109.945 132.739 109.352 C 132.005 108.763 129.882 107.745 127.081 107.71 C 124.281 107.675 120.783 107.892 118.791 108.935 C 116.801 109.98 117.148 111.241 119.003 111.622 C 120.853 112.007 123.234 112.942 124.175 113.79 C 124.526 114.102 125.187 114.633 124.561 114.565 C 123.934 114.495 123.69 114.565 123.69 114.565" fill="rgb(0,0,0)"/><path d=" M 129.84 109.74 L 129.559 108.972 C 129.559 108.972 131.482 109.077 131.969 110.122 C 132.061 110.322 131.969 110.687 131.969 110.687 C 131.969 110.687 131.732 110.191 130.891 109.912 C 130.046 109.635 129.84 109.74 129.84 109.74" fill="rgb(255,255,255)"/><path d=" M 128.927 110.577 C 128.927 110.577 128.815 109.358 127.911 108.656 C 127.911 108.656 125.187 108.272 122.176 108.83 C 119.168 109.385 118.23 110.317 118.298 110.5 C 118.368 110.682 119.419 111.132 120.221 111.342 C 120.221 111.342 119.026 110.71 119.133 110.326 L 119.419 110.117 L 120.743 110.5 C 120.743 110.5 122.246 109.56 124.101 109.42 C 125.95 109.281 127.63 109.42 127.945 109.735 L 127.876 109.317 C 127.876 109.317 128.719 109.915 128.927 110.577" fill="rgb(255,255,255)"/><path d=" M 100.428 121.427 C 100.428 121.427 100.061 122.881 100.191 123.799 C 100.191 123.799 100.919 122.793 101.368 122.708 L 101.368 122.387 C 101.368 122.387 100.621 121.512 100.428 121.427" fill="rgb(230,231,232)"/><path d=" M 100.691 124.002 C 100.691 124.002 101.012 123.491 101.374 123.338 L 101.354 124.213 C 101.354 124.213 100.861 124.026 100.691 124.002" fill="rgb(230,231,232)"/></g><g id="Group"><path d=" M 99.903 121.177 C 99.903 121.177 99.603 122.673 99.776 123.872 C 99.776 123.872 98.151 123.931 97.233 124.402 C 97.233 124.402 98.279 121.671 99.903 121.177 Z " fill="rgb(255,255,255)"/><path d=" M 99.403 120.927 C 99.403 120.927 97.242 122.332 96.538 124.044 C 96.538 124.044 94.723 120.863 96.367 116.717 C 96.367 116.717 97.751 119.829 98.741 120.519 C 98.953 120.669 99.403 120.927 99.403 120.927 Z " fill="rgb(255,255,255)"/><path d=" M 95.353 117.627 C 95.353 117.627 94.541 121.793 96.062 124.718 C 96.062 124.718 93.947 126.317 91.916 126.042 C 91.916 126.042 91.466 125.891 91.747 124.759 C 92.022 123.632 92.876 120.128 95.353 117.627 Z " fill="rgb(255,255,255)"/><path d=" M 94.966 115.94 C 94.966 115.94 95.806 116 95.926 116.271 C 95.926 116.271 91.841 120.233 91.18 124.711 C 91.18 124.711 89.288 119.454 92.261 114.018 C 92.261 114.018 92.771 113.628 93.131 113.867 C 93.493 114.106 94.695 115.337 94.966 115.94" fill="rgb(255,255,255)"/></g><g id="Group"><path d=" M 91.916 114.702 C 91.916 114.702 92.14 114.248 92.265 114.021 C 92.265 114.021 92.775 113.631 93.135 113.87 C 93.497 114.108 94.698 115.34 94.969 115.942 C 94.969 115.942 95.809 116.002 95.929 116.273 C 95.929 116.273 93.718 118.419 92.287 121.337 C 92.287 121.337 92.302 118.213 93.881 116.541 C 93.881 116.541 91.94 115.202 91.916 114.702 Z " fill="rgb(230,231,232)"/><path d=" M 94.641 124.514 C 94.36 123.822 94.452 120.033 94.452 120.033 C 93.886 120.472 92.518 122.232 92.518 122.232 C 93.071 120.787 93.951 119.052 95.353 117.636 C 95.353 117.636 94.541 121.802 96.062 124.727 C 96.062 124.727 95.679 125.017 95.083 125.326 C 95.083 125.326 94.923 125.202 94.641 124.514 Z " fill="rgb(230,231,232)"/><path d=" M 97.653 120.414 C 97.146 120.196 97.152 119.182 96.681 118.867 C 96.209 118.554 95.734 119.256 95.734 119.256 C 95.819 118.468 96.014 117.614 96.369 116.712 C 96.369 116.712 97.753 119.824 98.743 120.514 C 98.956 120.664 99.406 120.922 99.406 120.922 C 99.406 120.922 97.244 122.327 96.541 124.039 L 96.399 123.749 C 96.179 121.986 97.653 120.414 97.653 120.414" fill="rgb(230,231,232)"/><path d=" M 99.041 121.664 C 99.303 121.442 99.591 121.269 99.898 121.174 C 99.898 121.174 99.598 122.671 99.771 123.869 L 98.902 123.949 C 98.698 123.108 99.041 121.664 99.041 121.664" fill="rgb(230,231,232)"/><path d=" M 111.528 76.516 C 111.528 76.516 117.678 81.352 118.736 85.075 C 118.736 85.075 118.215 80.55 116.26 78.783 C 114.308 77.016 112.533 76.572 111.528 76.516" fill="rgb(230,231,232)"/><path d=" M 116.628 92.24 C 116.628 92.24 116.445 92.961 116.844 93.266 C 117.244 93.576 119.693 95.343 120.473 95.343 C 121.254 95.343 121.934 94.285 121.934 94.285 L 121.561 93.576 C 121.561 93.576 120.73 94.1 119.981 93.945 C 119.229 93.79 116.628 92.24 116.628 92.24 Z " fill="rgb(230,231,232)"/></g><g id="Group"><path d=" M 116.128 92.803 C 116.128 92.803 119.554 95.826 120.568 95.683 C 121.583 95.54 122.121 94.101 122.121 94.101 C 122.121 94.101 121.021 95.236 120.568 95.179 C 120.114 95.123 119.43 94.951 116.128 92.803 Z " fill="rgb(0,0,0)"/><path d=" M 118.015 106.69 C 118.906 106.42 122.469 105.475 128.119 105.651 C 128.119 105.651 125.551 104.237 120.464 103.491 C 120.464 103.491 120.57 100.486 121.074 99.376 C 121.573 98.267 123.358 96.243 124.105 94.456 C 124.849 92.668 125.755 89.16 125.787 88.451 C 125.821 87.739 125.545 87.098 125.212 87.975 L 125.149 88.149 L 124.72 89.98 C 124.535 91.851 122.461 96.421 120.989 97.444 C 119.518 98.467 118.224 97.164 117.773 96.758 C 117.323 96.355 111.835 91.731 109.453 89.07 C 107.073 86.407 109.062 87.314 109.804 87.608 C 110.547 87.9 112.16 88.46 112.16 88.46 C 110.214 87.198 107.369 85.447 106.702 85.148 C 105.794 84.742 105.45 84.734 106.022 85.784 C 106.599 86.833 108.425 90.238 113.077 94.286 C 117.726 98.334 118.706 99.209 118.946 100.019 C 119.183 100.831 118.47 103.694 118.135 104.204 C 117.796 104.71 116.25 104.806 115.034 105.009 C 114.073 105.169 111.97 106.021 109.853 107.786 C 109.853 107.786 113.48 105.257 119.696 104.966 L 122.068 105.19 C 122.068 105.19 118.619 105.482 116.469 106.776 L 118.015 106.69 L 118.015 106.69 Z " fill="rgb(230,231,232)"/><path d=" M 116.378 94.715 C 116.378 94.715 116.068 93.945 116.068 93.639 C 116.068 93.639 118.854 96.146 120.16 96.023 C 121.464 95.899 121.62 95.284 121.62 95.284 L 122.655 95.323 L 121.99 96.484 L 120.59 97.39 L 119.223 96.885 L 116.378 94.715 L 116.378 94.715 Z " fill="rgb(230,231,232)"/></g><g id="Group"><path d=" M 115.59 94.128 C 115.59 94.128 118.986 97.775 120.739 97.662 C 120.739 97.662 122.074 97.396 122.661 95.314 C 122.661 95.314 121.506 97.209 120.629 97.151 C 119.746 97.095 118.249 96.194 115.59 94.128" fill="rgb(0,0,0)"/><path d=" M 120.478 100.14 C 120.478 100.14 120.303 102.905 119.9 103.76 L 119.233 103.932 C 119.233 103.932 120.125 101.686 120.478 100.14 Z " fill="rgb(0,0,0)"/><path d=" M 118.915 105.127 C 118.915 105.127 121.479 104.487 124.707 104.66 L 125.652 104.954 C 125.652 104.954 120.636 104.875 118.915 105.127 Z " fill="rgb(0,0,0)"/></g><g id="Group"><path d=" M 128.29 119.014 C 127.49 121.423 125.539 124.298 124.385 125.638 C 123.236 126.979 121.578 128.625 117.878 130.492 C 114.176 132.357 111.044 131.872 111.044 131.872 L 110.87 131.12 C 109.233 131.347 106.827 128.683 106.827 128.683 C 106.827 128.683 107.255 128.312 107.683 128.084 C 108.113 127.857 108.067 127.56 107.683 127.36 C 105.792 126.37 104.475 123.432 104.475 123.432 C 104.933 123.629 105.762 123.314 105.762 123.314 C 104.524 122.859 104.336 121.222 104.389 120.396 C 104.45 119.567 103.409 118.501 103.239 118.006 C 103.067 117.509 103.808 116.141 103.808 116.141 C 101.858 116.767 100.662 119.327 100.662 119.327 C 100.662 119.327 100.433 119.157 99.194 118.063 C 97.956 116.966 97.901 116.053 97.529 115.483 C 97.158 114.911 95.691 114.711 95.633 114.513 C 95.526 114.125 94.141 113.018 94.141 113.018 C 94.341 112.677 93.913 112.323 93.285 112.351 C 90.013 112.5 89.021 117.969 89.021 117.969 C 88.917 116.723 88.987 115.257 90.512 112.936 C 92.038 110.617 93.946 111.227 93.946 111.227 C 91.897 110.512 91.44 110.113 90.207 111.592 C 88.886 113.177 87.335 115.667 87.201 118.806 C 87.067 121.949 87.641 125.287 89.361 127.139 C 91.081 128.998 92.087 130.004 92.766 129.903 C 93.443 129.8 96.577 126.488 97.357 126.194 C 97.357 126.194 96.341 127.317 96.306 127.749 C 96.306 127.749 99.109 126.395 101.472 126.837 C 101.472 126.837 101.268 125.117 101.302 124.746 C 101.302 124.746 98.941 124.272 97.389 124.913 C 95.839 125.556 93.368 126.632 92.393 126.668 C 91.42 126.7 90.176 125.888 89.563 124.473 C 88.956 123.059 88.921 122.416 88.921 122.416 C 88.921 122.416 89.726 124.611 90.608 125.152 C 90.608 125.152 88.852 120.731 91.182 114.862 C 91.182 114.862 89.828 116.115 89.021 117.969 C 89.021 117.969 89.86 114.347 92.197 113.006 C 93.307 112.371 94.12 112.768 93.883 112.972 C 93.647 113.177 93.238 113.378 93.238 113.378 C 93.238 113.378 94.485 114.185 94.924 114.792 C 95.367 115.403 95.541 115.301 96.143 115.472 C 96.746 115.638 97.653 117.623 98.262 118.504 C 98.872 119.384 99.882 120.154 100.491 120.426 C 101.099 120.697 101.642 121.474 101.642 121.474 C 101.642 121.474 101.668 119.551 102.447 118.976 C 102.447 118.976 101.601 122.448 102.073 125.051 C 102.548 127.648 104.171 132.367 107.747 132.975 C 111.32 133.585 116.173 133.247 119.713 130.815 C 123.236 128.399 125.959 125.353 128.195 120.438 L 128.29 119.014 L 128.29 119.014 Z " fill="rgb(230,231,232)"/><path d=" M 91.966 127.314 C 91.966 127.314 92.21 129.015 93.298 128.598 C 94.388 128.182 95.048 126.972 95.048 126.972 C 95.048 126.972 93.567 127.387 93.003 127.36 C 92.442 127.339 91.966 127.314 91.966 127.314 Z " fill="rgb(255,255,255)"/><path d=" M 97.291 126.927 C 97.291 126.927 97.617 125.934 98.648 125.789 C 99.678 125.642 100.201 125.863 100.201 125.863 C 100.201 125.863 99.407 126.435 98.846 126.512 C 98.279 126.584 97.291 126.927 97.291 126.927 Z " fill="rgb(255,255,255)"/><path d=" M 135.34 116.302 C 134.41 120.527 132.691 122.566 131.669 123.818 C 130.651 125.069 129.516 125.824 128.142 125.477 C 126.777 125.128 126.972 123.866 126.972 123.866 C 126.736 124.259 126.456 124.662 126.122 125.052 C 125.93 125.272 125.952 125.822 126.461 126.059 C 126.969 126.295 128.822 126.973 128.822 126.973 C 128.822 126.973 129.566 127.067 130.61 126.159 C 131.652 125.254 134.75 122.116 135.328 116.618 L 135.34 116.302 L 135.34 116.302 Z " fill="rgb(230,231,232)"/><path d=" M 108.865 126.952 C 108.865 126.952 108.07 126.747 108.338 126.363 C 108.605 125.976 108.962 126.012 109.229 125.866 C 109.495 125.717 109.059 125.361 109.524 125.332 C 109.994 125.301 110.024 125.738 109.963 126.124 C 109.904 126.512 109.873 126.898 109.873 126.898 L 109.318 127.104 L 108.865 126.952 Z " fill="rgb(230,231,232)"/><path d=" M 108.84 126.477 C 108.84 126.477 109.123 127.043 109.488 126.929 C 109.857 126.817 109.884 126.249 109.884 126.249 C 109.884 126.249 110.418 126.957 109.797 127.242 C 109.177 127.525 108.923 127.129 108.867 126.957 C 108.809 126.789 108.84 126.477 108.84 126.477 Z " fill="rgb(0,0,0)"/><path d=" M 107.865 122.789 C 107.865 122.789 106.893 122.662 107.249 122.196 C 107.604 121.728 107.717 121.341 107.925 121.256 C 108.134 121.163 108.755 121.319 108.547 121.964 C 108.34 122.612 107.865 122.789 107.865 122.789 Z " fill="rgb(230,231,232)"/><path d=" M 108.103 121.752 C 108.103 121.752 108.924 122.343 108.443 122.854 C 107.962 123.363 107.285 122.882 107.228 122.712 C 107.228 122.712 107.905 122.739 108.075 122.541 C 108.247 122.343 108.103 121.752 108.103 121.752" fill="rgb(0,0,0)"/><path d=" M 86.328 109.302 L 82.111 116.993 C 82.111 116.993 83.831 119.541 84.554 120.112 C 84.554 120.112 84.929 115.296 86.402 113.222 C 87.875 111.152 86.328 109.302 86.328 109.302 Z " fill="rgb(230,231,232)"/><path d=" M 85.828 110.19 C 85.828 110.19 84.114 113.768 84.024 115.751 C 83.935 117.733 83.846 119.271 83.846 119.271 L 82.107 116.988 L 85.828 110.19 L 85.828 110.19 Z " fill="rgb(255,255,255)"/><path d=" M 103.053 130.302 C 103.053 130.302 102.717 128.755 102.077 128.552 C 101.441 128.345 97.388 127.654 95.416 129.187 C 95.416 129.187 98.233 130.232 100.396 130.319 C 102.557 130.407 103.053 130.302 103.053 130.302" fill="rgb(255,255,255)"/><path d=" M 97.853 128.302 C 96.948 128.42 96.072 128.68 95.422 129.188 C 95.422 129.188 98.239 130.233 100.402 130.32 C 102.563 130.408 103.059 130.303 103.059 130.303 L 102.819 129.524 C 99.866 129.805 97.853 128.302 97.853 128.302 Z " fill="rgb(230,231,232)"/></g><g id="Group"><path d=" M 72.866 115.202 L 77.851 116.04 L 77.071 117.292 L 74.453 115.703 L 76.821 117.738 L 76.489 118.487 L 72.866 115.202 Z " fill="rgb(255,255,255)"/><path d=" M 79.891 121.802 C 79.891 121.802 81.174 120.606 82.705 121.747 C 84.24 122.886 84.182 124.253 84.182 124.253 L 83.4 123.839 C 83.4 123.839 83.229 122.651 82.127 121.944 C 82.127 121.944 82.761 123.056 82.761 123.279 C 82.761 123.279 80.337 121.857 79.891 121.802" fill="rgb(255,255,255)"/><path d=" M 87.903 127.927 C 87.903 127.927 88.431 127.542 88.877 127.733 L 90.163 129.377 C 90.163 129.377 90.163 130.464 90.048 130.685 C 90.048 130.685 88.351 128.344 87.903 127.927" fill="rgb(255,255,255)"/></g><g id="Group"><path d=" M 90.478 129.714 L 90.398 131.08 L 90.645 131.774 C 90.645 131.774 91.427 131.435 91.093 130.132 L 90.478 129.714 L 90.478 129.714 Z " fill="rgb(230,231,232)"/><path d=" M 89.525 69.169 C 89.525 69.169 86.746 71.346 85.455 73.102 C 84.162 74.858 84.453 80.799 84.453 80.799 L 84.936 80.219 C 85.224 78.446 86.227 76.979 86.227 76.979 C 85.938 77.615 85.82 79.504 85.82 79.504 C 88.983 74.28 89.525 69.169 89.525 69.169 L 89.525 69.169 Z  M 117.736 71.139 C 117.736 71.139 115.706 73.767 115.292 74.635 C 114.882 75.504 115.73 77.378 115.73 77.378 C 115.776 76.715 116.396 75.973 116.396 75.973 C 115.926 76.827 116.064 77.786 116.064 77.786 C 116.608 77.553 117.055 75.845 117.511 74.36 C 117.969 72.874 117.736 71.139 117.736 71.139 Z  M 80.563 114.009 C 80.009 114.001 79.877 114.48 79.877 114.48 L 76.701 120.974 C 77.818 121.085 79.153 121.474 79.153 121.474 C 79.153 121.474 81.073 119.887 82.887 121.195 C 85.502 123.086 85.143 125.042 85.143 125.042 C 85.531 125.263 87.232 127.187 87.232 127.187 L 88.18 126.796 C 86.147 124.816 82.302 118.828 81.408 117.017 C 80.515 115.206 81.072 115.148 81.072 115.148 C 81.129 115.54 81.465 115.706 81.465 115.706 L 82.078 114.757 C 81.379 114.192 80.895 114.014 80.563 114.009 L 80.563 114.009 Z  M 94.865 129.915 C 93.433 132.076 91.914 131.032 91.914 131.032 C 92.249 132.394 91.244 132.952 91.244 132.952 L 91.971 134.428 L 95.426 135.38 L 94.588 134.598 C 94.308 134.152 94.309 132.51 95.201 132.005 C 97.38 130.782 98.322 132.061 98.322 132.061 L 100.912 138.497 L 102.109 139.335 C 105.452 139.392 108.269 137.604 108.269 137.604 L 105.203 137.715 C 104.397 137.493 103.979 136.129 104.422 134.823 C 104.87 133.51 106.404 133.51 106.404 133.51 C 104.423 132.93 103.394 131.032 103.394 131.032 C 98.853 131.644 94.865 129.915 94.865 129.915 L 94.865 129.915 Z " fill="rgb(204,0,0)"/><path d=" M 98.503 136.964 L 97.192 136.295 L 95.326 133.814 C 95.326 133.814 94.927 132.628 96.249 132.247 C 97.576 131.865 98.127 132.479 98.374 133.188 C 98.621 133.902 100.274 137.949 100.274 137.949 L 98.981 137.145 L 96.903 133.81 C 96.903 133.81 96.356 132.78 96.984 132.51 C 96.984 132.51 96.012 132.514 96.144 133.39 C 96.212 133.832 98.503 136.964 98.503 136.964" fill="rgb(255,255,255)"/><path d=" M 112.615 136.464 L 106.318 136.824 C 106.318 136.824 104.77 137.086 104.754 135.988 C 104.737 134.885 105.598 134.048 106.198 134.032 C 106.794 134.013 112.615 136.464 112.615 136.464" fill="rgb(255,255,255)"/><path d=" M 88.553 133.577 C 88.553 133.577 89.921 133.799 90.55 133.98 C 90.55 133.98 88.432 126.04 80.25 122.628 C 73.656 119.878 70.928 123.696 70.051 125.764 C 70.051 125.764 71.818 122.169 76.419 122.627 C 76.419 122.627 73.536 123.253 72.766 125.367 C 72.766 125.367 75.408 121.953 79.637 124.259 C 83.869 126.569 87.86 130.829 88.553 133.577 Z " fill="rgb(230,231,232)"/><path d=" M 103.328 139.914 C 103.328 139.914 106.809 142.275 107.694 143.313 C 107.694 143.313 111.9 142.36 112.568 142.36 C 112.568 142.36 109.178 139.106 107.765 138.956 C 106.354 138.809 105.769 139.468 105.324 139.544 C 104.88 139.619 103.328 139.914 103.328 139.914" fill="rgb(230,231,232)"/><path d=" M 108.89 143.026 C 108.89 143.026 107.655 141.401 106.999 141.01 C 106.342 140.619 107.217 140.26 107.968 140.479 C 108.72 140.699 111.487 142.495 111.487 142.495 L 108.89 143.026 Z " fill="rgb(255,255,255)"/><path d=" M 105.615 145.301 C 105.615 145.301 109.86 142.551 113.962 143.038 C 113.962 143.038 113.564 145.809 113.594 146.769 C 113.594 146.769 112.545 147.111 112.263 147.224 C 112.263 147.224 109.109 146.521 107.342 146.852 C 106.892 146.937 106.354 147.372 106.213 147.196 C 106.072 147.022 106.892 146.455 106.892 146.264 C 106.892 146.064 106.719 145.811 106.382 145.667 C 106.043 145.527 105.615 145.301 105.615 145.301" fill="rgb(0,0,0)"/><path d=" M 112.703 142.989 C 112.703 142.989 112.282 143.135 112.617 143.755 C 112.957 144.375 112.957 144.768 112.505 144.826 C 112.054 144.88 108.948 144.83 108.152 145.282 C 107.357 145.735 107.13 145.957 107.13 145.957 C 107.13 145.957 106.655 145.651 106.68 145.309 C 106.708 144.966 106.96 144.544 106.96 144.544 C 106.96 144.544 110.47 142.904 112.703 142.989" fill="rgb(230,231,232)"/><path d=" M 115.428 136.226 L 114.843 136.253 C 115.401 136.733 116.815 138.361 116.815 138.361 C 116.393 139.079 116.101 140.629 116.101 140.629 C 116.101 140.629 116.525 139.671 116.766 139.266 C 117.004 138.861 117.375 139.32 117.861 139.645 C 118.349 139.973 118.155 140.311 118.155 140.311 C 116.259 142.286 115.911 145.624 115.911 145.624 C 116.164 144.23 117.135 142.816 117.73 141.943 C 118.491 140.813 118.974 142.096 119.566 143.955 C 121.013 148.489 119.629 153.19 119.629 153.19 C 119.629 154.287 121.26 154.38 121.26 154.38 C 121.781 153.716 121.805 152.624 121.805 151.327 C 121.805 149.28 121.846 143.395 117.895 137.998 C 115.596 134.85 113.674 134.09 113.687 134.09 C 114.124 134.09 115.428 136.226 115.428 136.226" fill="rgb(230,231,232)"/><path d=" M 106.865 143.526 C 107.54 143.526 101.773 138.803 95.268 136.263 C 88.766 133.73 86.41 133.418 82.056 134.649 C 79.89 135.263 78.212 138.739 78.272 140.661 C 78.272 140.661 78.147 142.831 78.476 144.384 C 78.805 145.941 80.015 146.272 80.015 146.272 L 80.746 146.307 C 80.746 146.307 80.829 144.935 81.26 144.629 C 81.26 144.629 81.137 137.636 85.778 135.65 C 85.778 135.65 81.791 138.575 82.425 143.281 C 82.425 143.281 82.344 144.875 82.732 146.551 C 83.122 148.231 84.731 148.552 84.731 148.552 C 84.731 148.552 85.39 148.841 86.147 148.841 C 86.147 148.841 85.535 140.296 90.995 138.371 C 90.995 138.371 85.596 142.588 87.52 147.922 C 87.52 147.922 88.398 148.045 88.888 149.23 C 89.381 150.417 90.237 151.277 89.992 151.765 C 89.992 151.765 93.407 155.407 98.686 152.811 C 103.961 150.214 103.081 144.753 103.081 144.753 C 103.081 144.753 102.078 141.991 101.711 141.539 C 101.711 141.539 103.182 143.135 103.817 144.69 C 103.817 144.69 106.192 143.526 106.865 143.526" fill="rgb(255,255,255)"/></g><g id="Group"><path d=" M 99.928 138.701 C 100.636 139.139 104.276 142.736 104.276 142.736 C 104.029 142.693 102.727 142.8 102.727 142.8 C 103.123 143.354 103.547 144.023 103.818 144.688 C 103.818 144.688 106.193 143.524 106.867 143.524 C 107.348 143.524 104.562 141.128 100.572 138.835 L 99.928 138.701 Z " fill="rgb(230,231,232)"/><path d=" M 88.578 141.076 C 87.447 142.801 86.726 145.554 87.363 148.192 C 87.363 148.192 87.568 148.824 88.005 150.031 C 88.325 150.911 90.085 152.192 90.085 152.192 C 90.085 152.192 93.401 155.408 98.679 152.812 C 103.954 150.215 103.074 144.754 103.074 144.754 C 103.074 144.754 102.831 144.089 102.558 143.353 C 102.558 143.353 103.073 148.767 99.168 150.749 C 95.262 152.732 93.401 151.951 92.498 151.831 C 91.615 151.715 90.948 150.854 90.323 150.434 C 90.323 150.434 89.603 149.474 89.361 148.994 C 89.166 148.604 88.715 147.204 88.715 147.204 C 88.715 147.204 88.055 144.684 88.233 143.361 C 88.413 142.039 88.578 141.076 88.578 141.076" fill="rgb(230,231,232)"/><path d=" M 82.104 138.076 C 81.079 139.098 80.299 140.299 80.299 140.299 C 79.005 142.555 78.245 140.279 78.245 140.279 C 78.025 141.089 78.081 142.714 78.146 144.043 C 78.227 145.637 79.802 146.476 79.802 146.476 L 81.487 147.314 C 81.487 147.314 81.244 145.435 81.25 144.631 C 81.25 144.631 81.139 138.315 85.111 135.985 C 85.111 135.985 83.124 137.053 82.104 138.076" fill="rgb(230,231,232)"/><path d=" M 87.278 140.476 C 85.835 141.74 84.934 144.564 84.934 144.564 C 83.692 145.874 82.454 143.796 82.454 143.796 C 82.372 144.354 82.5 145.384 82.571 145.836 C 82.931 148.072 84.49 149.03 84.49 149.03 C 84.49 149.03 85.388 149.402 86.145 149.402 C 86.145 149.402 85.546 140.476 90.823 138.435 C 90.823 138.435 88.72 139.216 87.278 140.476 Z " fill="rgb(230,231,232)"/></g><g id="Group"><path d=" M 121.603 130.752 C 121.603 130.752 125.189 127.072 125.659 126.06 C 125.659 126.06 126.419 126.8 127.212 127.012 C 128.002 127.223 128.161 127.773 127.899 127.984 C 127.632 128.195 126.14 129.114 124.634 129.252 C 124.05 129.304 123.398 130.328 122.978 130.54 C 122.55 130.752 121.603 130.752 121.603 130.752" fill="rgb(255,255,255)"/><path d=" M 126.652 128.139 C 126.969 127.872 126.652 127.744 126.017 127.639 C 125.18 127.5 123.737 128.458 123.737 128.458 C 124.599 127.502 125.437 126.51 125.65 126.055 C 125.65 126.055 126.41 126.795 127.204 127.007 C 127.994 127.218 128.152 127.768 127.89 127.979 C 127.624 128.19 126.131 129.109 124.625 129.247 C 124.599 129.249 124.575 129.253 124.552 129.258 C 124.552 129.258 126.335 128.402 126.652 128.139" fill="rgb(230,231,232)"/><path d=" M 109.64 124.002 C 109.64 124.002 108.669 123.876 109.024 123.408 C 109.378 122.939 109.494 122.554 109.698 122.467 C 109.907 122.377 110.53 122.531 110.323 123.178 C 110.117 123.824 109.64 124.002 109.64 124.002" fill="rgb(230,231,232)"/><path d=" M 109.028 123.627 C 109.028 123.627 109.337 124.388 109.902 124.218 C 110.468 124.049 110.777 123.289 110.072 122.919 C 110.072 122.919 110.128 123.657 109.788 123.713 C 109.454 123.769 109.028 123.627 109.028 123.627 Z " fill="rgb(0,0,0)"/><path d=" M 110.54 122.414 C 110.54 122.414 109.745 122.212 110.013 121.823 C 110.278 121.441 110.633 121.477 110.9 121.328 C 111.169 121.178 110.73 120.822 111.2 120.792 C 111.667 120.763 111.695 121.201 111.638 121.588 C 111.577 121.973 111.549 122.358 111.549 122.358 L 110.989 122.567 L 110.54 122.414 L 110.54 122.414 Z " fill="rgb(230,231,232)"/><path d=" M 110.778 122.427 C 110.778 122.427 111.458 122.654 111.683 122.457 C 111.91 122.257 111.855 121.554 111.205 121.411 C 111.205 121.411 111.405 121.946 111.292 122.116 C 111.178 122.286 110.778 122.427 110.778 122.427" fill="rgb(0,0,0)"/><path d=" M 109.628 120.902 C 109.628 120.902 108.852 120.824 109.135 120.526 C 109.422 120.222 109.51 119.978 109.677 119.921 C 109.843 119.863 110.342 119.962 110.177 120.377 C 110.009 120.789 109.628 120.902 109.628 120.902" fill="rgb(230,231,232)"/><path d=" M 109.49 120.877 C 109.49 120.877 110.168 121.188 110.45 120.763 C 110.735 120.337 110.06 119.776 109.69 119.888 C 109.69 119.888 110.113 120.227 110 120.482 C 109.887 120.736 109.49 120.877 109.49 120.877" fill="rgb(0,0,0)"/></g><g id="Group"><path d=" M 74.454 115.702 L 76.822 117.737 L 76.49 118.486 L 72.868 115.201 L 74.454 115.702 Z " fill="rgb(230,231,232)"/><path d=" M 79.954 121.752 C 79.954 121.752 81.167 120.629 82.7 121.752 C 84.242 122.881 84.177 124.258 84.177 124.258 L 83.395 123.844 C 83.395 123.844 83.232 122.716 82.205 122.003 C 82.205 122.003 81.099 121.556 79.954 121.752" fill="rgb(230,231,232)"/><path d=" M 96.828 132.514 C 96.564 132.557 96.038 132.723 96.138 133.382 C 96.206 133.823 98.497 136.955 98.497 136.955 L 97.186 136.286 L 95.319 133.805 C 95.319 133.805 94.899 132.544 96.243 132.238 C 97.653 131.915 97.894 132.43 97.894 132.43 C 97.001 132.388 96.828 132.514 96.828 132.514" fill="rgb(230,231,232)"/><path d=" M 112.615 136.464 L 106.318 136.824 C 106.318 136.824 104.77 137.086 104.754 135.988 C 104.737 134.888 105.589 134.054 106.204 134.032 C 106.204 134.032 105.664 134.603 105.6 135.122 C 105.542 135.639 105.909 135.793 107.507 135.885 C 109.099 135.978 110.882 136.038 110.882 136.038 L 112.615 136.464 L 112.615 136.464 Z " fill="rgb(230,231,232)"/></g><path d=" M 105.828 134.627 C 105.828 134.627 105.507 135.527 106.14 135.592 C 106.772 135.663 111.048 136.069 111.048 136.069 L 106.193 136.019 C 106.193 136.019 105.344 136.06 105.48 135.447 C 105.618 134.833 105.828 134.627 105.828 134.627" fill="rgb(0,0,0)"/><path d=" M 97.753 103.227 C 97.753 103.227 99.032 97.23 101.908 98.14 L 100.422 97.179 C 100.422 97.179 97.779 98.267 97.753 103.227 Z " fill="rgb(255,255,255)"/></g></g></svg>