<?xml version="1.0" standalone="no"?><!-- Generator: Gravit.io --><svg xmlns="http://www.w3.org/2000/svg" xmlns:xlink="http://www.w3.org/1999/xlink" style="isolation:isolate" viewBox="0 0 241 227" width="241" height="227"><defs><clipPath id="_clipPath_f7jDPKTVUyDLt7ihn5Q7c5ek4DH34Q1b"><rect width="241" height="227"/></clipPath></defs><g clip-path="url(#_clipPath_f7jDPKTVUyDLt7ihn5Q7c5ek4DH34Q1b)"><g opacity="0.5"><path d=" M 240.553 88.637 L 240.672 213.827 L 203.291 183.037 L 160.211 226.328 L 91.227 226.242 L 46.647 181.631 L 42.443 184.572 L 39.034 193.211 L 20.55 207.901 L 0.672 194.207 L 0.677 95.81 L 3.119 94.48 C 10.256 90.59 17.362 86.422 24.829 82.422 C 31.576 78.809 38.615 75.333 46.221 72.304 L 46.293 43.767 L 89.445 0.645 L 158.604 0.663 L 203.083 44.997 L 203.067 71.205 C 215.226 75.486 229.649 82.291 240.553 88.637 L 240.553 88.637 Z " fill="rgb(255,255,255)"/></g><g opacity="0.5"><path d=" M 187.029 51.969 L 187.043 77.853 C 177.325 75.255 167.27 72.563 156.986 71.32 L 156.991 62.587 L 139.621 46.084 L 108.044 46.073 L 91.577 62.463 L 91.577 71.773 C 81.633 73.355 71.823 75.906 62.314 78.552 C 62.314 78.552 62.406 55.823 62.196 55.823 L 62.26 55.823 C 62.179 54.21 62.325 50.195 62.325 50.195 L 96.006 16.757 L 151.884 16.769 L 187.029 51.969 L 187.029 51.969 Z " fill-rule="evenodd" fill="rgb(153,0,0)"/></g><g opacity="0.5"><path d=" M 187.535 157.308 L 187.664 175.925 L 153.558 209.954 L 97.583 209.895 L 63.1 175.472 L 63.079 158.296 C 72.248 153.551 81.755 149.938 91.861 147.322 L 91.954 163.01 L 109.449 180.509 L 141.144 180.385 L 157.298 164.172 L 157.245 147.322 C 157.245 147.324 177.703 152.178 187.535 157.308 Z " fill-rule="evenodd" fill="rgb(153,0,0)"/></g><g opacity="0.5"><path d=" M 153.188 146.415 L 153.181 161.731 L 139.169 175.802 L 112.043 175.861 L 97.067 160.687 L 97.072 145.883 L 103.723 144.602 L 103.718 157.975 L 114.566 168.887 L 135.726 168.823 L 146.66 157.951 L 146.66 144.802 C 148.818 145.264 153.188 146.415 153.188 146.415 L 153.188 146.415 Z " fill-rule="evenodd" fill="rgb(153,153,153)"/></g><g opacity="0.5"><path d=" M 158.267 221.642 L 93.165 221.562 L 51.332 179.853 L 51.337 172.632 C 51.337 172.632 44.774 176.246 41.393 179.143 L 41.399 171.535 C 46.646 167.759 52.577 163.87 58.362 160.776 L 58.377 176.954 L 96.411 214.928 L 155.485 214.874 L 192.368 177.874 L 192.368 159.74 C 197.276 162.29 201.743 165.233 206.258 168.241 L 206.252 175.861 C 206.252 175.861 201.12 172.906 198.684 171.405 L 198.622 181.092 L 158.267 221.642 Z " fill-rule="evenodd" fill="rgb(153,153,153)"/></g><g opacity="0.5"><path d=" M 198.401 46.939 L 198.384 74.548 C 211.379 78.874 223.859 84.589 235.45 91.336 L 235.45 98.246 C 221.792 90.642 207.085 84.19 191.862 79.299 L 191.872 50.419 L 153.478 11.986 L 94.225 12.043 L 57.606 48.505 L 57.73 79.908 C 44.235 83.556 20.288 96.741 5.371 106.125 L 5.36 98.591 C 19.615 90.822 33.741 81.943 50.896 75.518 L 50.971 45.712 L 91.384 5.328 L 156.669 5.345 L 198.401 46.939 L 198.401 46.939 Z " fill-rule="evenodd" fill="rgb(153,153,153)"/></g><g opacity="0.5"><path d=" M 134.971 57.571 L 112.693 57.631 L 103.072 67.382 L 103.072 70.287 L 96.41 71.062 L 96.421 64.141 L 109.853 50.786 L 137.814 50.797 L 152.407 64.049 L 152.407 70.853 L 146.026 70.022 L 146.025 67.279 L 134.971 57.571 Z " fill-rule="evenodd" fill="rgb(153,153,153)"/></g><g opacity="0.5"><path d=" M 203.217 197.309 C 205.694 197.309 207.675 195.316 207.675 192.851 C 207.675 190.364 205.694 188.371 203.217 188.371 C 200.73 188.371 198.76 190.364 198.76 192.851 C 198.76 195.316 200.73 197.309 203.217 197.309 Z  M 203.217 196.251 C 201.27 196.251 199.818 194.832 199.818 192.852 C 199.818 190.848 201.27 189.43 203.217 189.43 C 205.131 189.43 206.617 190.848 206.617 192.852 C 206.617 194.832 205.131 196.251 203.217 196.251 Z  M 204.231 193.155 C 205.052 193.098 205.492 192.751 205.492 191.894 C 205.492 190.666 204.761 190.476 203.69 190.476 L 201.439 190.476 L 201.439 195.114 L 202.474 195.114 L 202.474 193.155 L 203.195 193.155 L 204.231 195.114 L 205.357 195.114 L 204.231 193.155 Z  M 202.474 192.458 L 202.474 191.287 L 203.476 191.287 C 203.927 191.287 204.524 191.287 204.524 191.76 C 204.524 192.345 204.231 192.458 203.712 192.458 L 202.474 192.458 L 202.474 192.458 Z " fill-rule="evenodd" fill="rgb(35,31,32)"/></g><g opacity="0.5"><path d=" M 60.458 88.62 L 60.447 150.205 L 58.564 151.305 L 58.63 123.378 C 54.998 124.798 50.874 126.201 47.467 127.863 L 47.472 157.393 L 45.389 158.513 L 45.406 94.35 L 47.418 93.354 L 47.397 125.796 C 51.046 123.924 54.974 122.933 58.638 121.239 L 58.644 89.27 L 60.458 88.62 L 60.458 88.62 Z  M 64.597 82.793 L 64.586 153.197 C 61.131 154.827 57.919 156.619 54.706 158.427 L 54.787 129.692 C 53.883 129.902 52.575 130.516 51.671 130.92 L 51.671 159.978 L 41.533 166.564 L 41.55 91.274 C 44.827 89.821 47.948 88.352 51.419 87.206 L 51.334 119.75 L 54.256 118.717 L 54.256 86.15 C 57.612 85.037 61.158 83.713 64.597 82.793 Z  M 93.79 86.13 L 93.774 132.013 L 91.116 132.599 L 91.062 86.76 L 93.79 86.13 L 93.79 86.13 Z  M 98.175 84.568 L 98.159 133.825 L 96.743 136.085 C 93.942 136.766 91.484 137.35 88.93 137.894 L 86.853 136.151 L 86.869 85.763 L 89.424 82.647 L 94.994 81.652 L 98.175 84.568 L 98.175 84.568 Z  M 99.849 83.997 L 99.833 133.825 L 97.648 137.377 L 88.285 139.637 L 84.941 136.731 L 84.962 85.333 L 88.413 81.265 C 90.689 80.716 93.154 80.362 95.495 79.974 L 99.849 83.997 L 99.849 83.997 Z  M 103.976 81.974 L 104.03 134.988 L 99.972 141.315 C 95.5 142.348 90.964 143.188 86.605 144.479 L 80.922 138.862 L 80.938 83.201 L 86.798 77.008 L 96.807 75.124 L 103.976 81.974 L 103.976 81.974 Z  M 73.766 84.642 L 73.776 144.113 L 71.925 144.867 L 71.979 85.203 L 73.766 84.642 L 73.766 84.642 Z  M 78.297 79.004 L 78.276 147.256 C 74.773 148.531 70.631 150.19 67.241 151.755 L 67.233 81.889 C 70.741 81.015 74.697 79.73 78.297 79.004 L 78.297 79.004 Z  M 24.044 117.618 L 24.033 180.058 L 20.869 182.449 L 20.815 119.685 L 24.044 117.618 L 24.044 117.618 Z  M 30.372 111.106 L 30.35 179.929 L 28.294 184.836 C 25.275 187.015 22.687 189.076 19.782 191.353 L 14.276 187.666 L 14.293 118.844 L 16.865 113.872 L 27.197 108.06 L 30.372 111.106 L 30.372 111.106 Z  M 32.428 109.999 C 32.492 114.212 32.406 179.994 32.406 179.994 L 29.716 186.515 C 26.229 188.871 23.21 191.552 19.966 194.07 L 12.077 188.775 L 12.093 118.65 L 15.317 112.581 L 27.715 105.221 L 32.428 109.999 L 32.428 109.999 Z  M 38.627 107.092 L 38.605 181.543 L 35.14 190.324 C 29.877 193.988 25.051 198.009 20.353 202.076 L 5.355 191.746 L 5.307 118.716 L 11.442 107.416 L 29.006 97.149 L 38.627 107.092 L 38.627 107.092 Z  M 229.509 107.178 L 229.509 109.949 C 225.542 107.803 222.165 106.002 217.832 103.944 L 217.815 137.709 C 221.787 139.937 225.812 142.228 229.766 144.459 L 229.766 147.201 C 225.795 145.102 221.984 142.857 217.815 140.614 L 217.815 178.093 C 222.029 181.353 225.86 184.308 229.766 187.456 L 229.766 190.089 C 225.117 186.36 219.979 182.502 215.091 178.702 L 215.108 99.989 C 220.065 102.202 224.86 104.66 229.509 107.178 L 229.509 107.178 Z  M 176.568 90.821 L 176.557 116.197 L 173.866 115.487 L 173.921 90.174 L 176.568 90.821 L 176.568 90.821 Z  M 206.268 93.791 L 206.262 95.62 C 203.342 94.439 201.14 93.613 198.454 92.644 L 198.373 153.841 L 196.425 152.766 L 196.383 91.977 L 190.699 90.174 L 190.699 88.236 C 196.889 90.181 200.195 91.454 206.268 93.791 Z  M 178.366 86.489 L 180.69 90.304 L 180.674 121.621 C 176.879 120.458 173.506 119.264 169.647 118.263 L 169.664 87.398 L 171.714 84.879 L 178.366 86.489 L 178.366 86.489 Z  M 182.369 89.465 L 182.418 145.923 L 180.605 145.149 L 180.605 123.601 C 176.736 122.281 173.523 121.315 169.648 120.202 L 169.654 141.317 L 167.841 140.865 L 167.928 86.947 L 171.199 82.814 L 179.4 84.816 L 182.369 89.465 Z  M 159.263 80.489 L 159.263 82.103 L 153.456 81.323 L 153.439 137.118 L 151.567 136.731 L 151.588 81.134 C 149.614 80.828 147.103 80.615 145.136 80.36 L 145.24 78.681 C 149.856 79.181 154.671 79.821 159.263 80.489 L 159.263 80.489 Z  M 141.171 69.781 L 141.165 73.709 L 163.788 76.674 L 163.771 84.106 L 169.97 77.971 C 173.909 78.762 177.8 79.618 181.594 80.748 C 183.128 83.12 184.515 85.591 186.243 87.786 C 186.243 87.786 186.292 84.09 186.307 82.232 C 203.629 86.898 220.596 94.711 235.449 103.606 L 235.481 120.518 C 231.71 118.205 228.197 116.178 224.024 114.13 L 223.955 133.953 C 225.795 135.261 233.979 139.942 235.836 141.25 L 235.836 157.975 C 231.898 155.553 228.415 153.035 224.282 150.807 C 224.282 150.807 224.17 175.086 224.218 175.28 C 228.415 178.611 231.946 181.511 235.836 184.642 L 235.836 203.368 C 235.836 203.368 218.53 188.404 209.038 181.349 L 208.968 101.991 C 206.949 101.104 204.722 100.038 202.592 99.473 L 202.645 161.095 C 200.147 159.469 192.282 155.026 192.282 155.026 L 192.265 95.34 C 190.666 94.581 188.503 94.227 186.825 93.661 L 186.885 152.421 C 183.493 150.888 180.11 149.747 176.752 148.311 L 176.752 127.347 L 173.846 126.528 L 173.846 147.149 C 170.472 146.197 166.592 144.947 163.169 144.091 L 163.126 87.908 L 157.46 86.945 L 157.573 142.693 C 154.182 142.111 150.345 140.907 146.907 140.245 C 146.907 140.245 146.901 121.813 147.047 112.193 L 146.918 112 C 147.064 103.008 146.977 85.59 146.929 85.267 C 145.283 85.053 143.222 84.928 141.493 84.75 L 141.498 96.739 L 126.75 96.696 L 126.781 77.388 L 122.751 77.452 L 122.805 105.068 L 133.551 105.024 L 141.827 112.966 L 141.816 157.133 L 134.712 164.499 L 116.18 164.559 L 108.038 156.423 L 108.032 128.334 L 122.803 128.334 L 122.824 149.062 L 126.855 149.062 L 126.769 120.328 L 116.05 120.328 L 107.908 112.321 L 107.929 69.575 C 107.929 69.575 112.401 64.522 114.951 62.084 C 121.102 62.036 127.22 61.907 133.419 61.955 L 141.171 69.781 L 141.171 69.781 Z  M 117.897 68.661 L 130.296 68.661 L 134.945 73.439 L 134.945 91.003 L 132.362 91.003 L 132.362 74.472 L 129.133 71.243 L 119.058 71.243 L 116.346 74.343 L 116.346 108.181 L 119.827 111.667 L 130.676 111.667 L 135.46 116.446 L 135.46 153.511 L 130.682 158.161 L 118.672 158.161 L 114.152 153.791 L 114.152 134.007 L 116.864 134.007 L 116.864 152.607 L 119.835 155.579 L 129.651 155.579 L 132.88 152.484 L 132.88 117.479 L 129.651 114.25 L 118.796 114.25 L 113.764 109.342 L 113.764 73.439 L 117.897 68.661 L 117.897 68.661 Z " fill-rule="evenodd" fill="rgb(0,0,0)"/></g></g></svg>