<?xml version="1.0" standalone="no"?><!-- Generator: Gravit.io --><svg xmlns="http://www.w3.org/2000/svg" xmlns:xlink="http://www.w3.org/1999/xlink" style="isolation:isolate" viewBox="0 0 25 20" width="25" height="20"><defs><clipPath id="_clipPath_bzcRJYiBE0gN7hhAm1rKs6c1435R6Psr"><rect width="25" height="20"/></clipPath></defs><g clip-path="url(#_clipPath_bzcRJYiBE0gN7hhAm1rKs6c1435R6Psr)"><clipPath id="_clipPath_c28TorcoMvubLGR9W4N5oVskQn0lheMB"><rect x="0" y="0" width="25" height="20" transform="matrix(1,0,0,1,0,0)" fill="rgb(255,255,255)"/></clipPath><g clip-path="url(#_clipPath_c28TorcoMvubLGR9W4N5oVskQn0lheMB)"><g id="Group"><clipPath id="_clipPath_nbhWW7CdC343yuRoeSr8BunaRrLu0AOv"><rect x="3" y="3" width="19" height="16.948" transform="matrix(1,0,0,1,0,0)" fill="rgb(255,255,255)"/></clipPath><g clip-path="url(#_clipPath_nbhWW7CdC343yuRoeSr8BunaRrLu0AOv)"><g id="Group"><g id="Group"><clipPath id="_clipPath_4D90NEQuFlIYDtymX3qV1x6nFup4xxKG"><rect x="3" y="3" width="19" height="16.94" transform="matrix(1,0,0,1,0,0)" fill="rgb(255,255,255)"/></clipPath><g clip-path="url(#_clipPath_4D90NEQuFlIYDtymX3qV1x6nFup4xxKG)"><g id="Group"><g id="Group"><g id="Group"><clipPath id="_clipPath_VXiawuBWjMgIKJGYm5rt94Ga3GxlDoI8"><rect x="3" y="3" width="19" height="16.94" transform="matrix(1,0,0,1,0,0)" fill="rgb(255,255,255)"/></clipPath><g clip-path="url(#_clipPath_VXiawuBWjMgIKJGYm5rt94Ga3GxlDoI8)"><g id="Group"><g id="Group"><g id="Group"><g id="Group"><g id="Group"><path d=" M 9.964 15.458 L 8.148 16.777 L 10.358 18.383 L 11.052 16.249 L 9.964 15.458 L 9.964 15.458 L 9.964 15.458 Z " fill="rgb(0,79,152)"/><path d=" M 10.685 18.62 L 12.501 19.94 L 14.315 18.62 L 12.501 17.301 L 10.685 18.62 L 10.685 18.62 L 10.685 18.62 Z " fill="rgb(0,79,152)"/><path d=" M 11.602 14.545 L 4.946 9.709 L 6.501 12.942 L 8.708 14.545 L 11.602 14.545 L 11.602 14.545 L 11.602 14.545 Z " fill="rgb(0,79,152)"/><path d=" M 12.299 12.413 L 3 5.656 L 4.553 8.89 L 11.745 14.115 L 12.299 12.413 L 12.299 12.413 L 12.299 12.413 Z " fill="rgb(0,79,152)"/><path d=" M 4.319 3.004 L 3.222 5.285 L 6.591 7.733 L 4.319 3.004 L 4.319 3.004 L 4.319 3.004 Z " fill="rgb(0,79,152)"/><path d=" M 13.949 16.249 L 14.642 18.383 L 16.853 16.777 L 15.037 15.458 L 13.949 16.249 L 13.949 16.249 L 13.949 16.249 Z " fill="rgb(0,79,152)"/><path d=" M 16.293 14.545 L 18.5 12.942 L 20.054 9.709 L 13.398 14.545 L 16.293 14.545 L 16.293 14.545 L 16.293 14.545 Z " fill="rgb(0,79,152)"/><path d=" M 12.702 12.413 L 13.255 14.115 L 20.447 8.89 L 22.001 5.656 L 12.702 12.413 L 12.702 12.413 L 12.702 12.413 Z " fill="rgb(0,79,152)"/><path d=" M 20.682 3.004 L 18.409 7.733 L 21.779 5.285 L 20.682 3.004 L 20.682 3.004 L 20.682 3.004 Z " fill="rgb(0,79,152)"/><path d=" M 11.492 15.776 C 11.492 15.219 11.944 14.767 12.502 14.767 C 13.057 14.767 13.51 15.219 13.51 15.776 C 13.51 16.333 13.057 16.785 12.502 16.785 C 11.944 16.785 11.492 16.333 11.492 15.776 Z " fill="rgb(0,79,152)"/></g></g></g></g></g></g></g></g></g></g></g></g></g></g></g></g></svg>